# xmcd
#
# Track frame offsets:
#	150
#	12188
#	23728
#	38794
#	49117
#	60866
#	70832
#	80876
#	93311
#	103921
#	115539
#	126002
#	135634
#	146971
#	163044
#
# Disc length: 2355 seconds
# Revision: 0
# Processed by: cddbd v1.5.2PL0 Copyright (c) Steve Scherf et al.
# Submitted via: dBpowerAMP V12.0
#
DISCID=c709310f
DTITLE=The Traditional Grass - The Blues Are Still the Blues
DYEAR=2015
DGENRE=Country
TTITLE0=The Blues Are Still the Blues
TTITLE1=You Are My Flower
TTITLE2=I'll Not Be a Stranger
TTITLE3=Rough Edges
TTITLE4=The Shuffle of My Feet
TTITLE5=A Broken Heart Keeps Beatin'
TTITLE6=Old Joe
TTITLE7=It's Grand to Have Someone to Love You
TTITLE8=I Believe in the Old-Time Way
TTITLE9=She Has Forgotten
TTITLE10=Lazarus
TTITLE11=You'll Never Be the Same
TTITLE12=You Can Keep Your Nine Pound Hammer
TTITLE13=Gonna Lay Down My Old Guitar
TTITLE14=Back to Hancock County
EXTD=
EXTT0=
EXTT1=
EXTT2=
EXTT3=
EXTT4=
EXTT5=
EXTT6=
EXTT7=
EXTT8=
EXTT9=
EXTT10=
EXTT11=
EXTT12=
EXTT13=
EXTT14=
PLAYORDER=
